<svg width="162" height="100" viewBox="0 0 162 100" fill="none" xmlns="http://www.w3.org/2000/svg">
<path fill-rule="evenodd" clip-rule="evenodd" d="M50.4816 33.398C51.2166 33.663 51.8856 34.049 52.4886 34.555C53.0666 35.085 53.5366 35.748 53.8986 36.543C54.2596 37.339 54.4406 38.255 54.4406 39.291V52.885C54.4406 53.97 54.2596 54.898 53.8986 55.669C53.5366 56.441 53.0666 57.079 52.4886 57.585C51.8856 58.116 51.2166 58.514 50.4816 58.779C49.7466 59.043 49.0056 59.176 48.2586 59.176C47.5106 59.176 46.7696 59.043 46.0346 58.779C45.2996 58.514 44.6426 58.116 44.0646 57.585C43.4616 57.079 42.9796 56.441 42.6186 55.669C42.2566 54.898 42.0756 53.97 42.0756 52.885V39.291C42.0756 38.255 42.2566 37.339 42.6186 36.543C42.9796 35.748 43.4616 35.085 44.0646 34.555C44.6426 34.049 45.2996 33.663 46.0346 33.398C46.7696 33.133 47.5106 33 48.2586 33C49.0056 33 49.7466 33.133 50.4816 33.398ZM38.931 53.2103V51.6193H35.243V52.8853C35.243 53.3923 35.171 53.8143 35.026 54.1503C34.882 54.4883 34.701 54.7533 34.484 54.9463C34.243 55.1393 33.983 55.2773 33.706 55.3613C33.429 55.4463 33.17 55.4883 32.929 55.4883C32.085 55.4883 31.501 55.2353 31.176 54.7293C30.85 54.2233 30.687 53.5973 30.687 52.8493V39.6893C30.687 38.8213 30.838 38.1043 31.139 37.5373C31.441 36.9723 32.049 36.6883 32.965 36.6883C33.664 36.6883 34.218 36.9533 34.628 37.4833C35.038 38.0143 35.243 38.6403 35.243 39.3633V40.5933H38.931V39.1473C38.931 38.2553 38.78 37.4293 38.479 36.6703C38.177 35.9103 37.762 35.2543 37.232 34.6993C36.147 33.5663 34.737 33.0003 33.001 33.0003C32.109 33.0003 31.296 33.1503 30.561 33.4523C29.826 33.7543 29.193 34.1693 28.663 34.6993C28.133 35.2303 27.723 35.8563 27.433 36.5793C27.144 37.3033 27 38.0863 27 38.9303V53.1023C27 54.2833 27.186 55.2533 27.56 56.0133C27.933 56.7723 28.41 57.3933 28.988 57.8743C29.567 58.3563 30.218 58.6943 30.941 58.8873C31.664 59.0793 32.374 59.1763 33.074 59.1763C33.893 59.1763 34.659 59.0143 35.369 58.6883C36.08 58.3623 36.701 57.9233 37.232 57.3683C37.762 56.8143 38.177 56.1823 38.479 55.4703C38.78 54.7603 38.931 54.0063 38.931 53.2103ZM88.8243 35.0249C89.4513 35.6999 89.8853 36.4899 90.1253 37.3929C90.3673 38.2969 90.4863 39.5209 90.4863 41.0629C90.4863 42.2199 90.4203 43.1959 90.2893 43.9919C90.1563 44.7869 89.8733 45.5349 89.4393 46.2329C88.9343 47.0769 88.2583 47.7339 87.4143 48.2039C86.5703 48.6729 85.4613 48.9089 84.0883 48.9089H82.2083V58.9589H78.5203V33.2169H84.0513C85.0643 33.2169 85.9553 33.3499 86.7273 33.6149C87.4983 33.8799 88.1973 34.3509 88.8243 35.0249ZM66.4075 46.848H66.3355L61.5985 33.217H58.0555V58.959H61.7435V43.304H61.8155L65.4325 54.368H67.2765L70.9275 43.304H70.9995V58.959H74.6865V33.217H71.1085L66.4075 46.848ZM35.342 66.858C35.539 66.74 35.693 66.571 35.804 66.348C35.915 66.126 35.97 65.863 35.97 65.556C35.97 65.25 35.915 64.986 35.804 64.765C35.693 64.543 35.539 64.374 35.342 64.256C35.145 64.138 34.913 64.078 34.647 64.078C34.382 64.078 34.149 64.138 33.949 64.256C33.75 64.374 33.596 64.543 33.487 64.765C33.379 64.986 33.325 65.25 33.325 65.556C33.325 65.863 33.379 66.126 33.487 66.348C33.596 66.571 33.75 66.74 33.949 66.858C34.149 66.975 34.382 67.035 34.647 67.035C34.913 67.035 35.145 66.975 35.342 66.858ZM34.647 63.553C35.031 63.553 35.367 63.637 35.654 63.807C35.943 63.977 36.167 64.211 36.327 64.513C36.488 64.814 36.568 65.162 36.568 65.556C36.568 65.952 36.488 66.299 36.327 66.601C36.167 66.901 35.943 67.136 35.654 67.305C35.367 67.476 35.031 67.561 34.647 67.561C34.264 67.561 33.927 67.476 33.639 67.305C33.351 67.136 33.126 66.901 32.964 66.601C32.802 66.299 32.721 65.952 32.721 65.556C32.721 65.162 32.802 64.814 32.964 64.513C33.126 64.211 33.351 63.977 33.639 63.807C33.927 63.637 34.264 63.553 34.647 63.553ZM57.4572 66.858C57.6542 66.74 57.8082 66.571 57.9192 66.348C58.0302 66.126 58.0862 65.863 58.0862 65.556C58.0862 65.25 58.0302 64.986 57.9192 64.765C57.8082 64.543 57.6542 64.374 57.4572 64.256C57.2602 64.138 57.0282 64.078 56.7622 64.078C56.4972 64.078 56.2642 64.138 56.0642 64.256C55.8662 64.374 55.7122 64.543 55.6022 64.765C55.4942 64.986 55.4402 65.25 55.4402 65.556C55.4402 65.863 55.4942 66.126 55.6022 66.348C55.7122 66.571 55.8662 66.74 56.0642 66.858C56.2642 66.975 56.4972 67.035 56.7622 67.035C57.0282 67.035 57.2602 66.975 57.4572 66.858ZM56.7622 63.553C57.1462 63.553 57.4822 63.637 57.7692 63.807C58.0582 63.977 58.2822 64.211 58.4422 64.513C58.6032 64.814 58.6842 65.162 58.6842 65.556C58.6842 65.952 58.6032 66.299 58.4422 66.601C58.2822 66.901 58.0582 67.136 57.7692 67.305C57.4822 67.476 57.1462 67.561 56.7622 67.561C56.3792 67.561 56.0422 67.476 55.7552 67.305C55.4662 67.136 55.2412 66.901 55.0792 66.601C54.9172 66.299 54.8362 65.952 54.8362 65.556C54.8362 65.162 54.9172 64.814 55.0792 64.513C55.2412 64.211 55.4662 63.977 55.7552 63.807C56.0422 63.637 56.3792 63.553 56.7622 63.553ZM97.0364 65.8441H98.0884C98.0554 66.2061 97.9404 66.4951 97.7484 66.7131C97.5544 66.9311 97.2654 67.0401 96.8814 67.0401C96.5014 67.0401 96.1974 66.9111 95.9684 66.6521C95.7394 66.3941 95.6254 66.0341 95.6254 65.5731C95.6254 65.1121 95.7404 64.7501 95.9744 64.4881C96.2064 64.2261 96.5254 64.0951 96.9314 64.0951C97.2044 64.0951 97.4284 64.1541 97.6004 64.2731C97.7744 64.3911 97.8904 64.5531 97.9494 64.7601H98.6134C98.5244 64.3821 98.3334 64.0881 98.0384 63.8731C97.7424 63.6591 97.3734 63.5531 96.9314 63.5531C96.5394 63.5531 96.2014 63.6391 95.9154 63.8091C95.6294 63.9821 95.4094 64.2191 95.2544 64.5211C95.0984 64.8231 95.0214 65.1731 95.0214 65.5671C95.0214 65.9671 95.0974 66.3151 95.2484 66.6151C95.3994 66.9121 95.6114 67.1461 95.8854 67.3111C96.1584 67.4781 96.4764 67.5611 96.8424 67.5611C97.1554 67.5611 97.4114 67.5051 97.6064 67.3941C97.8024 67.2831 97.9644 67.1261 98.0944 66.9241L98.1434 67.4941H98.6804V65.3911H97.0364V65.8441ZM109.432 66.5365L107.489 63.6195H106.902V67.4945H107.489V64.5765L109.432 67.4945H110.019V63.6195H109.432V66.5365ZM104.477 67.4947H105.064V63.6197H104.477V67.4947ZM114.32 67.4945H111.856V63.6195H114.32V64.0955H112.443V65.3025H114.154V65.7665H112.443V67.0175H114.32V67.4945ZM120.981 65.2796H119.104V63.6196H118.517V67.4946H119.104V65.7606H120.981V67.4946H121.568V63.6196H120.981V65.2796ZM125.868 67.4945H123.404V63.6195H125.868V64.0955H123.991V65.3025H125.702V65.7665H123.991V67.0175H125.868V67.4945ZM128.918 65.4896H128.204V64.1116H128.913C129.187 64.1116 129.383 64.1736 129.505 64.2976C129.627 64.4216 129.689 64.5866 129.689 64.7936C129.689 64.9996 129.626 65.1676 129.503 65.2966C129.379 65.4256 129.185 65.4896 128.918 65.4896ZM130.101 65.4296C130.229 65.2336 130.292 65.0156 130.292 64.7766C130.292 64.5606 130.243 64.3676 130.147 64.1916C130.052 64.0156 129.904 63.8776 129.708 63.7736C129.51 63.6706 129.258 63.6196 128.952 63.6196H127.617V67.4946H128.204V65.9326H128.897L129.649 67.4946H130.331L129.505 65.8496C129.774 65.7656 129.973 65.6256 130.101 65.4296ZM134.498 67.4945H132.035V63.6195H134.498V64.0955H132.621V65.3025H134.332V65.7665H132.621V67.0175H134.498V67.4945ZM100.447 63.6195H101.034V67.0295H102.795V67.4945H100.447V63.6195ZM62.3934 66.1986L61.0814 63.6196H60.3884V67.4946H60.9754V64.6376L62.1654 66.9406H62.6194L63.8044 64.6326V67.4946H64.3914V63.6196H63.7004L62.3934 66.1986ZM67.5586 65.4518C67.8356 65.4518 68.0346 65.3908 68.1536 65.2718C68.2726 65.1508 68.3336 64.9888 68.3336 64.7818C68.3336 64.5668 68.2726 64.4008 68.1536 64.2808C68.0346 64.1608 67.8356 64.1008 67.5586 64.1008H66.8166V65.4518H67.5586ZM67.5866 63.6198C67.8886 63.6198 68.1396 63.6688 68.3396 63.7708C68.5376 63.8738 68.6866 64.0098 68.7846 64.1868C68.8826 64.3618 68.9316 64.5598 68.9316 64.7818C68.9316 64.9918 68.8846 65.1838 68.7906 65.3608C68.6956 65.5358 68.5496 65.6748 68.3506 65.7778C68.1506 65.8798 67.8956 65.9328 67.5866 65.9328H66.8166V67.4948H66.2296V63.6198H67.5866ZM70.9852 66.0814L71.6102 64.3164L72.2362 66.0814H70.9852ZM71.2942 63.6194L69.8672 67.4944H70.4872L70.8182 66.5484H72.4022L72.7352 67.4944H73.3552L71.9372 63.6194H71.2942ZM75.5338 63.6195L77.4778 66.5365V63.6195H78.0648V67.4945H77.4778L75.5338 64.5765V67.4945H74.9478V63.6195H75.5338ZM81.1819 65.4896L80.2689 63.6196H79.6049L80.8899 66.0646V67.4946H81.4759V66.0646L82.7479 63.6196H82.0909L81.1819 65.4896ZM87.6424 64.0951H86.4964V63.6191H89.3704V64.0951H88.2294V67.4941H87.6424V64.0951ZM91.4173 66.0814L92.0433 64.3164L92.6693 66.0814H91.4173ZM91.7273 63.6194L90.2993 67.4944H90.9193L91.2513 66.5484H92.8343L93.1673 67.4944H93.7873L92.3693 63.6194H91.7273ZM43.6085 65.4896H44.3235C44.5895 65.4896 44.7835 65.4256 44.9075 65.2966C45.0315 65.1676 45.0935 64.9996 45.0935 64.7936C45.0935 64.5866 45.0325 64.4216 44.9105 64.2976C44.7885 64.1736 44.5915 64.1116 44.3175 64.1116H43.6085V65.4896ZM45.6965 64.7766C45.6965 65.0156 45.6335 65.2336 45.5055 65.4296C45.3775 65.6256 45.1795 65.7656 44.9105 65.8496L45.7355 67.4946H45.0545L44.3015 65.9326H43.6085V67.4946H43.0215V63.6196H44.3565C44.6635 63.6196 44.9145 63.6706 45.1125 63.7736C45.3095 63.8776 45.4565 64.0156 45.5525 64.1916C45.6485 64.3676 45.6965 64.5606 45.6965 64.7766ZM51.6082 64.0785C51.8932 64.0785 52.1202 64.1445 52.2892 64.2785C52.4592 64.4105 52.5692 64.5895 52.6222 64.8145H53.2742C53.1982 64.4155 53.0152 64.1055 52.7262 63.8845C52.4392 63.6635 52.0682 63.5535 51.6132 63.5535C51.2312 63.5535 50.8992 63.6375 50.6202 63.8075C50.3412 63.9765 50.1272 64.2115 49.9752 64.5135C49.8242 64.8135 49.7492 65.1635 49.7492 65.5615C49.7492 65.9575 49.8242 66.3055 49.9752 66.6055C50.1272 66.9055 50.3412 67.1405 50.6202 67.3075C50.8992 67.4755 51.2312 67.5605 51.6132 67.5605C52.0682 67.5605 52.4392 67.4515 52.7262 67.2335C53.0152 67.0165 53.1982 66.7165 53.2742 66.3315H52.6222C52.5692 66.5495 52.4592 66.7215 52.2892 66.8465C52.1202 66.9725 51.8932 67.0345 51.6082 67.0345C51.2212 67.0345 50.9142 66.9025 50.6902 66.6415C50.4652 66.3805 50.3532 66.0195 50.3532 65.5615C50.3532 65.1005 50.4652 64.7375 50.6902 64.4745C50.9142 64.2105 51.2212 64.0785 51.6082 64.0785ZM40.6302 66.0443C40.6302 66.3833 40.5492 66.6323 40.3872 66.7903C40.2252 66.9503 40.0072 67.0293 39.7342 67.0293C39.4562 67.0293 39.2372 66.9503 39.0752 66.7903C38.9132 66.6323 38.8312 66.3833 38.8312 66.0443V63.6193H38.2442V66.0383C38.2442 66.3863 38.3112 66.6713 38.4412 66.8963C38.5712 67.1213 38.7492 67.2883 38.9722 67.3973C39.1952 67.5063 39.4452 67.5613 39.7232 67.5613C39.9962 67.5613 40.2462 67.5063 40.4722 67.3973C40.6992 67.2883 40.8802 67.1213 41.0162 66.8963C41.1512 66.6713 41.2172 66.3863 41.2172 66.0383V63.6193H40.6302V66.0443ZM96.346 33.2171L90.596 58.9591H94.283L95.369 53.4281H100.395L101.479 58.9591H105.166L99.418 33.2171H96.346ZM116.375 33.2171H120.063V58.9591H116.592L110.952 43.4851H110.879V58.9591H107.192V33.2171H110.735L116.303 48.7281H116.375V33.2171ZM132.03 33.2171L129.065 43.4481H128.993L126.028 33.2171H122.124L127.184 48.0761V58.9591H130.872V48.0761L135.934 33.2171H132.03ZM29.1 63.6196L30.013 65.4896L30.922 63.6196H31.579L30.307 66.0646V67.4946H29.721V66.0646L28.436 63.6196H29.1Z" fill="#9A9AB0"/>
</svg>
