<svg width="162" height="100" viewBox="0 0 162 100" fill="none" xmlns="http://www.w3.org/2000/svg">
<path fill-rule="evenodd" clip-rule="evenodd" d="M67.203 30L55.879 49.612L67.203 69.223H89.847L101.171 49.612L89.847 30H67.203ZM68.235 49.612L73.381 40.7H83.669L88.815 49.612L83.669 58.523H73.381L68.235 49.612ZM18 41.4408V43.6438H20.708V57.7828H23.05V43.6438H25.759V41.4408H18ZM34 57.7833H27.021V41.4403H34V43.6433H29.363V48.4413H33.402V50.6443H29.363V55.4423H34V57.7833ZM43.3647 41.4406H40.8847L39.0947 46.2836L37.3277 41.4406H34.8487L37.9017 49.2216L34.5947 57.7836H37.0757L39.0947 52.2746L41.1377 57.7836H43.6167L40.2417 49.2216L43.3647 41.4406ZM46.439 43.6437H43.73V41.4407H51.49V43.6437H48.781V57.7837H46.439V43.6437ZM108.941 41.4406H106.599V57.7836H113.578V55.4426H108.941V41.4406ZM130.529 41.5552C130.995 41.7242 131.419 41.9682 131.802 42.2892C132.169 42.6262 132.468 43.0472 132.697 43.5522C132.927 44.0572 133.042 44.6392 133.042 45.2962V46.1232H130.7V45.2962C130.7 44.7302 130.544 44.3132 130.23 44.0452C129.915 43.7772 129.544 43.6432 129.116 43.6432C128.689 43.6432 128.318 43.7772 128.003 44.0452C127.689 44.3132 127.532 44.7302 127.532 45.2962V53.9272C127.532 54.4932 127.689 54.9102 128.003 55.1782C128.318 55.4462 128.689 55.5802 129.116 55.5802C129.544 55.5802 129.915 55.4462 130.23 55.1782C130.544 54.9102 130.7 54.4932 130.7 53.9272V50.8522H128.841V48.7852H133.042V53.9272C133.042 54.6152 132.927 55.2052 132.697 55.6942C132.468 56.1852 132.169 56.5902 131.802 56.9112C131.419 57.2482 130.995 57.5002 130.529 57.6682C130.062 57.8372 129.591 57.9212 129.116 57.9212C128.642 57.9212 128.171 57.8372 127.704 57.6682C127.238 57.5002 126.822 57.2482 126.454 56.9112C126.072 56.5902 125.765 56.1852 125.536 55.6942C125.306 55.2052 125.191 54.6152 125.191 53.9272V45.2962C125.191 44.6392 125.306 44.0572 125.536 43.5522C125.765 43.0472 126.072 42.6262 126.454 42.2892C126.822 41.9682 127.238 41.7242 127.704 41.5552C128.171 41.3872 128.642 41.3032 129.116 41.3032C129.591 41.3032 130.062 41.3872 130.529 41.5552ZM120.693 53.9269C120.693 54.4929 120.537 54.9099 120.222 55.1779C119.908 55.4469 119.537 55.5799 119.109 55.5799C118.681 55.5799 118.31 55.4469 117.996 55.1779C117.681 54.9099 117.525 54.4929 117.525 53.9269V45.2959C117.525 44.7309 117.681 44.3139 117.996 44.0449C118.31 43.7779 118.681 43.6439 119.109 43.6439C119.537 43.6439 119.908 43.7779 120.222 44.0449C120.537 44.3139 120.693 44.7309 120.693 45.2959V53.9269ZM121.795 42.2889C121.412 41.9679 120.988 41.7239 120.521 41.5549C120.054 41.3869 119.584 41.3029 119.109 41.3029C118.634 41.3029 118.164 41.3869 117.697 41.5549C117.23 41.7239 116.814 41.9679 116.447 42.2889C116.064 42.6259 115.757 43.0469 115.529 43.5519C115.298 44.0569 115.183 44.6389 115.183 45.2959V53.9269C115.183 54.6149 115.298 55.2049 115.529 55.6949C115.757 56.1849 116.064 56.5899 116.447 56.9109C116.814 57.2479 117.23 57.4999 117.697 57.6679C118.164 57.8369 118.634 57.9209 119.109 57.9209C119.584 57.9209 120.054 57.8369 120.521 57.6679C120.988 57.4999 121.412 57.2479 121.795 56.9109C122.162 56.5899 122.461 56.1849 122.689 55.6949C122.92 55.2049 123.035 54.6149 123.035 53.9269V45.2959C123.035 44.6389 122.92 44.0569 122.689 43.5519C122.461 43.0469 122.162 42.6259 121.795 42.2889ZM140.238 55.1779C140.552 54.9099 140.709 54.4929 140.709 53.9269V45.2959C140.709 44.7309 140.552 44.3139 140.238 44.0449C139.924 43.7779 139.552 43.6439 139.125 43.6439C138.697 43.6439 138.326 43.7779 138.012 44.0449C137.697 44.3139 137.541 44.7309 137.541 45.2959V53.9269C137.541 54.4929 137.697 54.9099 138.012 55.1779C138.326 55.4469 138.697 55.5799 139.125 55.5799C139.552 55.5799 139.924 55.4469 140.238 55.1779ZM141.811 42.2889C142.177 42.6259 142.477 43.0469 142.704 43.5519C142.936 44.0569 143.05 44.6389 143.05 45.2959V53.9269C143.05 54.6149 142.936 55.2049 142.704 55.6949C142.477 56.1849 142.177 56.5899 141.811 56.9109C141.427 57.2479 141.004 57.4999 140.536 57.6679C140.07 57.8369 139.6 57.9209 139.125 57.9209C138.649 57.9209 138.18 57.8369 137.713 57.6679C137.245 57.4999 136.829 57.2479 136.463 56.9109C136.079 56.5899 135.772 56.1849 135.545 55.6949C135.313 55.2049 135.199 54.6149 135.199 53.9269V45.2959C135.199 44.6389 135.313 44.0569 135.545 43.5519C135.772 43.0469 136.079 42.6259 136.463 42.2889C136.829 41.9679 137.245 41.7239 137.713 41.5549C138.18 41.3869 138.649 41.3029 139.125 41.3029C139.6 41.3029 140.07 41.3869 140.536 41.5549C141.004 41.7239 141.427 41.9679 141.811 42.2889Z" fill="#9A9AB0"/>
</svg>
