<svg width="162" height="100" viewBox="0 0 162 100" fill="none" xmlns="http://www.w3.org/2000/svg">
<path fill-rule="evenodd" clip-rule="evenodd" d="M69.165 20V36.657L52.508 20V63.443H69.165H95.951H112.608L69.165 20ZM57.1483 73.4815C57.7083 73.4815 58.1583 73.6125 58.4983 73.8725C58.8383 74.1315 59.0603 74.4905 59.1643 74.9455H60.8563C60.6963 74.0425 60.2943 73.3395 59.6503 72.8395C59.0063 72.3395 58.1803 72.0895 57.1723 72.0895C56.3243 72.0895 55.5963 72.2735 54.9883 72.6415C54.3803 73.0095 53.9123 73.5215 53.5843 74.1775C53.2563 74.8345 53.0923 75.5895 53.0923 76.4455C53.0923 77.3015 53.2563 78.0555 53.5843 78.7085C53.9123 79.3605 54.3803 79.8685 54.9883 80.2315C55.5963 80.5955 56.3243 80.7775 57.1723 80.7775C58.1803 80.7775 59.0063 80.5345 59.6503 80.0455C60.2943 79.5575 60.6963 78.8815 60.8563 78.0175H59.1643C59.0603 78.4505 58.8383 78.7885 58.4983 79.0325C58.1583 79.2765 57.7083 79.3975 57.1483 79.3975C56.3723 79.3975 55.7643 79.1355 55.3243 78.6115C54.8843 78.0875 54.6643 77.3665 54.6643 76.4455C54.6643 75.5265 54.8843 74.8015 55.3243 74.2735C55.7643 73.7465 56.3723 73.4815 57.1483 73.4815ZM70.3422 78.6055C69.8662 79.1335 69.2282 79.3975 68.4282 79.3975C67.6282 79.3975 66.9882 79.1335 66.5082 78.6055C66.0282 78.0785 65.7882 77.3535 65.7882 76.4335C65.7882 75.5135 66.0282 74.7905 66.5082 74.2615C66.9882 73.7335 67.6282 73.4695 68.4282 73.4695C69.2282 73.4695 69.8662 73.7335 70.3422 74.2615C70.8182 74.7905 71.0562 75.5135 71.0562 76.4335C71.0562 77.3535 70.8182 78.0785 70.3422 78.6055ZM70.6242 72.6415C69.9922 72.2735 69.2602 72.0895 68.4282 72.0895C67.5882 72.0895 66.8542 72.2735 66.2262 72.6415C65.5982 73.0095 65.1062 73.5195 64.7502 74.1715C64.3942 74.8245 64.2162 75.5785 64.2162 76.4335C64.2162 77.2905 64.3942 78.0435 64.7502 78.6955C65.1062 79.3475 65.5982 79.8585 66.2262 80.2255C66.8542 80.5935 67.5882 80.7775 68.4282 80.7775C69.2602 80.7775 69.9922 80.5935 70.6242 80.2255C71.2562 79.8585 71.7482 79.3475 72.1002 78.6955C72.4522 78.0435 72.6282 77.2905 72.6282 76.4335C72.6282 75.5785 72.4522 74.8245 72.1002 74.1715C71.7482 73.5195 71.2562 73.0095 70.6242 72.6415ZM78.0876 72.2335L80.7646 77.5615L83.4036 72.2335H85.2276V80.6335H83.6916V74.8375L81.3526 79.4335H80.1406L77.7996 74.8375V80.6335H76.2646V72.2335H78.0876ZM93.31 75.7803C93.074 76.0153 92.688 76.1343 92.152 76.1343H90.675V73.4813H92.152C92.688 73.4813 93.074 73.5993 93.31 73.8363C93.545 74.0723 93.664 74.3973 93.664 74.8133C93.664 75.2213 93.545 75.5443 93.31 75.7803ZM93.915 72.5693C93.476 72.3453 92.919 72.2333 92.248 72.2333H89.14V80.6343H90.675V77.3823H92.248C92.936 77.3823 93.499 77.2633 93.94 77.0273C94.379 76.7923 94.704 76.4793 94.912 76.0923C95.12 75.7043 95.224 75.2783 95.224 74.8133C95.224 74.3263 95.116 73.8853 94.9 73.4943C94.684 73.1013 94.356 72.7943 93.915 72.5693ZM101.188 73.9983L99.976 77.4903H102.412L101.188 73.9983ZM97.264 80.6343L100.335 72.2333H102.064L105.136 80.6343H103.503L102.831 78.6893H99.556L98.872 80.6343H97.264ZM113.979 78.1494L110.031 72.2334H108.496V80.6334H110.031V74.7294L113.979 80.6334H115.515V72.2334H113.979V78.1494ZM122.379 76.1094L124.228 72.2334H125.944L123.136 77.6454V80.6334H121.6V77.6454L118.78 72.2334H120.52L122.379 76.1094ZM37 80.6346L40.073 72.2336H41.801L44.873 80.6346H43.241L42.569 78.6896H39.293L38.609 80.6346H37ZM42.148 77.4906L40.924 73.9986L39.712 77.4906H42.148Z" fill="#9A9AB0"/>
</svg>
