<svg width="162" height="100" viewBox="0 0 162 100" fill="none" xmlns="http://www.w3.org/2000/svg">
<path fill-rule="evenodd" clip-rule="evenodd" d="M35.891 18L14 39.892L22.484 48.374L35.892 34.967L49.299 48.374L57.783 39.892L35.891 18ZM14.0003 61.1001L35.8913 82.9921L57.7823 61.1001L35.8913 39.2091L14.0003 61.1001ZM82.4495 53.8798C82.2825 53.2708 82.1995 52.5608 82.1995 51.7528V43.0278C82.1995 42.2198 82.2825 41.5148 82.4495 40.9118C82.6155 40.3108 82.9255 39.8468 83.3765 39.5218C83.8285 39.1968 84.4815 39.0338 85.3375 39.0338C86.1775 39.0338 86.8195 39.1968 87.2625 39.5218C87.7065 39.8468 88.0115 40.3108 88.1785 40.9118C88.3455 41.5148 88.4285 42.2198 88.4285 43.0278V51.7528C88.4285 52.5608 88.3455 53.2708 88.1785 53.8798C88.0115 54.4898 87.7065 54.9658 87.2625 55.3068C86.8195 55.6478 86.1775 55.8168 85.3375 55.8168C84.4815 55.8168 83.8285 55.6478 83.3765 55.3068C82.9255 54.9658 82.6155 54.4898 82.4495 53.8798ZM88.3085 56.5068C89.0225 55.9998 89.5255 55.3068 89.8185 54.4268C90.1115 53.5478 90.2595 52.5288 90.2595 51.3718V43.3608C90.2595 42.1888 90.1075 41.1698 89.8065 40.3058C89.5065 39.4418 88.9945 38.7728 88.2735 38.2968C87.5525 37.8208 86.5735 37.5838 85.3375 37.5838C84.0855 37.5838 83.0985 37.8208 82.3785 38.2968C81.6565 38.7728 81.1415 39.4418 80.8325 40.3058C80.5235 41.1698 80.3695 42.1888 80.3695 43.3608V51.3488C80.3695 52.5058 80.5145 53.5318 80.8085 54.4268C81.1015 55.3218 81.6085 56.0198 82.3305 56.5198C83.0515 57.0188 84.0535 57.2678 85.3375 57.2678C86.6055 57.2678 87.5955 57.0148 88.3085 56.5068ZM74.33 37.5839C75.488 37.5839 76.395 37.8059 77.052 38.2499C77.71 38.6929 78.182 39.3229 78.467 40.1399C78.752 40.9559 78.895 41.9269 78.895 43.0519V44.2169H77.183V43.0999C77.183 42.2599 77.115 41.5379 76.981 40.9359C76.846 40.3339 76.573 39.8659 76.161 39.5329C75.748 39.1999 75.147 39.0339 74.354 39.0339C73.483 39.0339 72.828 39.2129 72.393 39.5689C71.956 39.9259 71.663 40.4289 71.513 41.0789C71.363 41.7289 71.287 42.4809 71.287 43.3369V51.5389C71.287 52.4889 71.378 53.2819 71.561 53.9159C71.742 54.5499 72.056 55.0249 72.5 55.3429C72.944 55.6589 73.562 55.8169 74.354 55.8169C75.162 55.8169 75.769 55.6439 76.173 55.2949C76.577 54.9459 76.846 54.4589 76.981 53.8329C77.115 53.2069 77.183 52.4739 77.183 51.6339V50.3739H78.895V51.5149C78.895 52.6409 78.764 53.6349 78.502 54.4979C78.241 55.3619 77.781 56.0399 77.123 56.5309C76.466 57.0219 75.534 57.2679 74.33 57.2679C73.031 57.2679 72.029 56.9989 71.323 56.4599C70.617 55.9209 70.13 55.1959 69.861 54.2839C69.591 53.3729 69.457 52.3629 69.457 51.2529V43.5989C69.457 42.4099 69.595 41.3639 69.873 40.4609C70.15 39.5569 70.646 38.8529 71.359 38.3449C72.072 37.8379 73.062 37.5839 74.33 37.5839ZM128.244 63.3612H129.978V63.0262H128.657V62.1452H129.861V61.8182H128.657V60.9682H129.978V60.6332H128.244V63.3612ZM125.17 60.6334L126.538 62.6874V60.6334H126.951V63.3614H126.538L125.17 61.3074V63.3614H124.757V60.6334H125.17ZM123.463 63.3617H123.05V60.6337H123.463V63.3617ZM133.346 61.8026H134.667V60.6336H135.08V63.3616H134.667V62.1416H133.346V63.3616H132.933V60.6336H133.346V61.8026ZM136.373 63.3612H138.107V63.0262H136.786V62.1452H137.99V61.8182H136.786V60.9682H138.107V60.6332H136.373V63.3612ZM139.752 61.9501H140.255C140.442 61.9501 140.579 61.9051 140.666 61.8141C140.753 61.7231 140.797 61.6051 140.797 61.4601C140.797 61.3141 140.754 61.1981 140.668 61.1111C140.582 61.0231 140.443 60.9801 140.251 60.9801H139.752V61.9501ZM141.222 61.4481C141.222 61.6171 141.177 61.7701 141.087 61.9081C140.997 62.0461 140.858 62.1441 140.668 62.2041L141.249 63.3611H140.77L140.239 62.2621H139.752V63.3611H139.339V60.6341H140.278C140.494 60.6341 140.671 60.6701 140.811 60.7421C140.949 60.8151 141.053 60.9131 141.12 61.0371C141.188 61.1601 141.222 61.2971 141.222 61.4481ZM142.449 63.3612H144.182V63.0262H142.861V62.1452H144.065V61.8182H142.861V60.9682H144.182V60.6332H142.449V63.3612ZM97.6519 57.0306L94.0139 41.7206L93.6339 57.0306H92.1359L92.6119 37.7746H94.4179L98.2219 54.4866L102.097 37.7746H103.904L104.379 57.0306H102.881L102.501 41.6966L98.8169 57.0306H97.6519ZM108.445 46.5702V39.1292H110.774C111.631 39.1292 112.292 39.2362 112.759 39.4502C113.226 39.6642 113.555 40.0452 113.746 40.5912C113.936 41.1372 114.031 41.9032 114.031 42.8852C114.031 43.8042 113.921 44.5342 113.699 45.0722C113.476 45.6112 113.124 45.9962 112.64 46.2252C112.157 46.4552 111.527 46.5702 110.751 46.5702H108.445ZM113.924 47.2362C114.597 46.7762 115.081 46.1622 115.375 45.3932C115.668 44.6252 115.814 43.7892 115.814 42.8852C115.814 41.8552 115.675 40.9602 115.398 40.1992C115.121 39.4382 114.649 38.8432 113.984 38.4162C113.318 37.9882 112.407 37.7742 111.25 37.7742H106.637V57.0302H108.445V47.9252H111.273C112.367 47.9252 113.251 47.6952 113.924 47.2362ZM120.189 40.1744L118.145 50.5634H122.234L120.189 40.1744ZM121.117 37.7744L125.206 57.0304H123.422L122.471 51.8714H117.883L116.909 57.0304H115.149L119.214 37.7744H121.117ZM134.025 52.7274L127.891 37.7744H126.584V57.0304H128.153V41.9114L134.31 57.0304H135.594V37.7744H134.025V52.7274ZM142.82 57.0302H141.061V50.6342L136.71 37.7742H138.469L141.94 48.4712L145.269 37.7742H147.051L142.82 50.6342V57.0302ZM70.634 61.9501L69.991 60.6341H69.524L70.428 62.3551V63.3611H70.841V62.3551L71.737 60.6341H71.274L70.634 61.9501ZM74.3852 62.9126C74.5232 62.8296 74.6322 62.7106 74.7102 62.5546C74.7882 62.3986 74.8272 62.2126 74.8272 61.9966C74.8272 61.7826 74.7882 61.5956 74.7102 61.4406C74.6322 61.2836 74.5232 61.1646 74.3852 61.0816C74.2462 60.9986 74.0832 60.9566 73.8962 60.9566C73.7092 60.9566 73.5452 60.9986 73.4042 61.0816C73.2652 61.1646 73.1562 61.2836 73.0792 61.4406C73.0032 61.5956 72.9652 61.7826 72.9652 61.9966C72.9652 62.2126 73.0032 62.3986 73.0792 62.5546C73.1562 62.7106 73.2652 62.8296 73.4042 62.9126C73.5452 62.9956 73.7092 63.0376 73.8962 63.0376C74.0832 63.0376 74.2462 62.9956 74.3852 62.9126ZM73.8962 60.5866C74.1662 60.5866 74.4022 60.6466 74.6052 60.7656C74.8082 60.8856 74.9662 61.0506 75.0782 61.2626C75.1912 61.4746 75.2482 61.7196 75.2482 61.9966C75.2482 62.2756 75.1912 62.5206 75.0782 62.7326C74.9662 62.9436 74.8082 63.1096 74.6052 63.2286C74.4022 63.3486 74.1662 63.4086 73.8962 63.4086C73.6262 63.4086 73.3892 63.3486 73.1872 63.2286C72.9832 63.1096 72.8252 62.9436 72.7112 62.7326C72.5972 62.5206 72.5402 62.2756 72.5402 61.9966C72.5402 61.7196 72.5972 61.4746 72.7112 61.2626C72.8252 61.0506 72.9832 60.8856 73.1872 60.7656C73.3892 60.6466 73.6262 60.5866 73.8962 60.5866ZM78.1077 62.3407C78.1077 62.5787 78.0507 62.7547 77.9367 62.8657C77.8227 62.9787 77.6697 63.0337 77.4767 63.0337C77.2817 63.0337 77.1277 62.9787 77.0127 62.8657C76.8987 62.7547 76.8407 62.5787 76.8407 62.3407V60.6337H76.4277V62.3367C76.4277 62.5807 76.4747 62.7817 76.5667 62.9407C76.6587 63.0987 76.7837 63.2167 76.9407 63.2927C77.0977 63.3697 77.2737 63.4077 77.4687 63.4077C77.6617 63.4077 77.8367 63.3697 77.9967 63.2927C78.1567 63.2167 78.2837 63.0987 78.3787 62.9407C78.4737 62.7817 78.5207 62.5807 78.5207 62.3367V60.6337H78.1077V62.3407ZM80.2043 61.9501H80.7073C80.8943 61.9501 81.0313 61.9051 81.1183 61.8141C81.2053 61.7231 81.2493 61.6051 81.2493 61.4601C81.2493 61.3141 81.2063 61.1981 81.1203 61.1111C81.0343 61.0231 80.8953 60.9801 80.7033 60.9801H80.2043V61.9501ZM81.6743 61.4481C81.6743 61.6171 81.6293 61.7701 81.5393 61.9081C81.4493 62.0461 81.3103 62.1441 81.1203 62.2041L81.7013 63.3611H81.2223L80.6913 62.2621H80.2043V63.3611H79.7913V60.6341H80.7303C80.9463 60.6341 81.1233 60.6701 81.2633 60.7421C81.4013 60.8151 81.5053 60.9131 81.5723 61.0371C81.6403 61.1601 81.6743 61.2971 81.6743 61.4481ZM85.8352 60.9569C86.0352 60.9569 86.1952 61.0039 86.3142 61.0979C86.4342 61.1899 86.5122 61.3159 86.5492 61.4759H87.0082C86.9542 61.1939 86.8252 60.9769 86.6222 60.8199C86.4202 60.6649 86.1592 60.5869 85.8392 60.5869C85.5692 60.5869 85.3362 60.6459 85.1402 60.7659C84.9432 60.8859 84.7922 61.0509 84.6862 61.2629C84.5792 61.4749 84.5262 61.7209 84.5262 62.0009C84.5262 62.2789 84.5792 62.5239 84.6862 62.7359C84.7922 62.9469 84.9432 63.1119 85.1402 63.2299C85.3362 63.3489 85.5692 63.4079 85.8392 63.4079C86.1592 63.4079 86.4202 63.3309 86.6222 63.1779C86.8252 63.0249 86.9542 62.8129 87.0082 62.5429H86.5492C86.5122 62.6959 86.4342 62.8169 86.3142 62.9049C86.1952 62.9939 86.0352 63.0379 85.8352 63.0379C85.5632 63.0379 85.3472 62.9449 85.1892 62.7609C85.0302 62.5769 84.9512 62.3229 84.9512 62.0009C84.9512 61.6769 85.0302 61.4209 85.1892 61.2349C85.3472 61.0499 85.5632 60.9569 85.8352 60.9569ZM89.9526 62.9126C90.0906 62.8296 90.1996 62.7106 90.2776 62.5546C90.3556 62.3986 90.3946 62.2126 90.3946 61.9966C90.3946 61.7826 90.3556 61.5956 90.2776 61.4406C90.1996 61.2836 90.0906 61.1646 89.9526 61.0816C89.8136 60.9986 89.6506 60.9566 89.4636 60.9566C89.2766 60.9566 89.1126 60.9986 88.9716 61.0816C88.8326 61.1646 88.7236 61.2836 88.6466 61.4406C88.5706 61.5956 88.5326 61.7826 88.5326 61.9966C88.5326 62.2126 88.5706 62.3986 88.6466 62.5546C88.7236 62.7106 88.8326 62.8296 88.9716 62.9126C89.1126 62.9956 89.2766 63.0376 89.4636 63.0376C89.6506 63.0376 89.8136 62.9956 89.9526 62.9126ZM89.4636 60.5866C89.7336 60.5866 89.9696 60.6466 90.1726 60.7656C90.3756 60.8856 90.5336 61.0506 90.6456 61.2626C90.7586 61.4746 90.8156 61.7196 90.8156 61.9966C90.8156 62.2756 90.7586 62.5206 90.6456 62.7326C90.5336 62.9436 90.3756 63.1096 90.1726 63.2286C89.9696 63.3486 89.7336 63.4086 89.4636 63.4086C89.1936 63.4086 88.9566 63.3486 88.7546 63.2286C88.5506 63.1096 88.3926 62.9436 88.2786 62.7326C88.1646 62.5206 88.1076 62.2756 88.1076 61.9966C88.1076 61.7196 88.1646 61.4746 88.2786 61.2626C88.3926 61.0506 88.5506 60.8856 88.7546 60.7656C88.9566 60.6466 89.1936 60.5866 89.4636 60.5866ZM93.427 62.4491L92.503 60.6341H92.016V63.3611H92.429V61.3501L93.267 62.9711H93.586L94.42 61.3461V63.3611H94.833V60.6341H94.347L93.427 62.4491ZM97.0627 61.9238C97.2577 61.9238 97.3977 61.8808 97.4817 61.7968C97.5657 61.7118 97.6087 61.5978 97.6087 61.4518C97.6087 61.3008 97.5657 61.1838 97.4817 61.0998C97.3977 61.0148 97.2577 60.9728 97.0627 60.9728H96.5407V61.9238H97.0627ZM97.0827 60.6338C97.2947 60.6338 97.4717 60.6688 97.6127 60.7398C97.7527 60.8128 97.8567 60.9088 97.9257 61.0328C97.9947 61.1558 98.0297 61.2958 98.0297 61.4518C98.0297 61.5998 97.9967 61.7348 97.9297 61.8588C97.8637 61.9828 97.7597 62.0808 97.6207 62.1528C97.4797 62.2258 97.2997 62.2628 97.0827 62.2628H96.5407V63.3608H96.1277V60.6338H97.0827ZM99.4748 62.3671L99.9148 61.1251L100.356 62.3671H99.4748ZM99.6928 60.6341L98.6878 63.3611H99.1238L99.3578 62.6951H100.472L100.706 63.3611H101.143L100.145 60.6341H99.6928ZM102.677 60.6334L104.045 62.6874V60.6334H104.458V63.3614H104.045L102.677 61.3074V63.3614H102.264V60.6334H102.677ZM106.653 61.9501L106.01 60.6341H105.543L106.447 62.3551V63.3611H106.86V62.3551L107.756 60.6341H107.293L106.653 61.9501ZM111.201 60.9686H110.394V60.6336H112.416V60.9686H111.614V63.3616H111.201V60.9686ZM113.858 62.3671L114.298 61.1251L114.739 62.3671H113.858ZM114.076 60.6341L113.071 63.3611H113.507L113.741 62.6951H114.855L115.089 63.3611H115.526L114.528 60.6341H114.076ZM118.553 62.2001H117.813V61.8811H118.97V63.3611H118.592L118.557 62.9601C118.466 63.1021 118.352 63.2131 118.214 63.2911C118.077 63.3691 117.897 63.4081 117.676 63.4081C117.419 63.4081 117.195 63.3491 117.002 63.2321C116.81 63.1161 116.661 62.9521 116.554 62.7421C116.448 62.5311 116.395 62.2861 116.395 62.0051C116.395 61.7271 116.449 61.4811 116.558 61.2681C116.667 61.0551 116.823 60.8881 117.024 60.7671C117.225 60.6471 117.463 60.5871 117.739 60.5871C118.05 60.5871 118.31 60.6621 118.518 60.8121C118.726 60.9641 118.861 61.1711 118.923 61.4361H118.456C118.415 61.2911 118.333 61.1771 118.21 61.0941C118.088 61.0101 117.931 60.9691 117.739 60.9691C117.454 60.9691 117.229 61.0601 117.065 61.2451C116.901 61.4291 116.82 61.6841 116.82 62.0091C116.82 62.3341 116.9 62.5871 117.061 62.7681C117.222 62.9511 117.436 63.0421 117.704 63.0421C117.974 63.0421 118.177 62.9651 118.314 62.8111C118.45 62.6581 118.53 62.4551 118.553 62.2001ZM120.626 60.6337H120.213V63.3617H121.865V63.0337H120.626V60.6337Z" fill="#9A9AB0"/>
</svg>
