<svg width="162" height="100" viewBox="0 0 162 100" fill="none" xmlns="http://www.w3.org/2000/svg">
<path fill-rule="evenodd" clip-rule="evenodd" d="M41.916 39.906C41.916 44.583 45.707 48.375 50.385 48.375C55.062 48.375 58.854 44.583 58.854 39.906C58.854 35.228 55.062 31.437 50.385 31.437C45.707 31.437 41.916 35.228 41.916 39.906ZM10 50.146C10 33.497 23.496 20 40.145 20C56.794 20 70.29 33.497 70.29 50.146C70.29 66.794 56.794 80.291 40.145 80.291C23.496 80.291 10 66.794 10 50.146ZM82.7818 44.5426C81.6438 44.5426 80.6668 44.2986 79.8518 43.8096C79.0358 43.3216 78.4078 42.6396 77.9678 41.7646C77.5278 40.8906 77.3078 39.8786 77.3078 38.7296C77.3078 37.5816 77.5278 36.5666 77.9678 35.6866C78.4078 34.8066 79.0358 34.1196 79.8518 33.6256C80.6668 33.1326 81.6438 32.8856 82.7818 32.8856C84.1348 32.8856 85.2428 33.2206 86.1058 33.8916C86.9718 34.5626 87.5108 35.5046 87.7258 36.7176H85.4558C85.3148 36.1056 85.0188 35.6246 84.5608 35.2766C84.1048 34.9276 83.5008 34.7526 82.7498 34.7526C81.7088 34.7526 80.8928 35.1066 80.3028 35.8156C79.7118 36.5236 79.4168 37.4956 79.4168 38.7296C79.4168 39.9646 79.7118 40.9336 80.3028 41.6366C80.8928 42.3396 81.7088 42.6906 82.7498 42.6906C83.5008 42.6906 84.1048 42.5276 84.5608 42.1996C85.0188 41.8726 85.3148 41.4186 85.4558 40.8386H87.7258C87.5108 41.9986 86.9718 42.9056 86.1058 43.5596C85.2428 44.2146 84.1348 44.5426 82.7818 44.5426ZM93.3443 37.9565C92.7973 37.9565 92.3283 38.1585 91.9363 38.5605C91.5433 38.9635 91.3483 39.5615 91.3483 40.3555C91.3483 41.1505 91.5433 41.7485 91.9363 42.1515C92.3283 42.5535 92.7913 42.7545 93.3293 42.7545C93.8653 42.7545 94.3323 42.5535 94.7293 42.1515C95.1263 41.7485 95.3253 41.1505 95.3253 40.3555C95.3253 39.5615 95.1263 38.9635 94.7293 38.5605C94.3323 38.1585 93.8713 37.9565 93.3443 37.9565ZM93.3293 44.5425C92.5553 44.5425 91.8613 44.3655 91.2443 44.0115C90.6253 43.6565 90.1373 43.1655 89.7783 42.5375C89.4183 41.9095 89.2393 41.1825 89.2393 40.3555C89.2393 39.5295 89.4213 38.8025 89.7863 38.1745C90.1513 37.5465 90.6423 37.0555 91.2593 36.7015C91.8763 36.3465 92.5723 36.1695 93.3443 36.1695C94.1073 36.1695 94.7963 36.3465 95.4143 36.7015C96.0313 37.0555 96.5193 37.5465 96.8783 38.1745C97.2383 38.8025 97.4183 39.5295 97.4183 40.3555C97.4183 41.1825 97.2383 41.9095 96.8783 42.5375C96.5193 43.1655 96.0283 43.6565 95.4063 44.0115C94.7833 44.3655 94.0903 44.5425 93.3293 44.5425ZM109.139 36.1699C108.559 36.1699 108.026 36.2979 107.537 36.5559C107.048 36.8139 106.66 37.1629 106.369 37.6029C105.855 36.6479 104.98 36.1699 103.745 36.1699C103.187 36.1699 102.696 36.2849 102.272 36.5159C101.848 36.7469 101.507 37.0549 101.249 37.4419L101.073 36.3629H99.2534V44.3489H101.314V40.2269C101.314 39.4979 101.483 38.9289 101.821 38.5209C102.16 38.1129 102.602 37.9089 103.15 37.9089C103.707 37.9089 104.12 38.0909 104.389 38.4559C104.658 38.8209 104.791 39.3469 104.791 40.0339V44.3489H106.853V40.2269C106.853 39.4979 107.022 38.9289 107.36 38.5209C107.698 38.1129 108.146 37.9089 108.704 37.9089C109.251 37.9089 109.657 38.0909 109.92 38.4559C110.183 38.8209 110.315 39.3469 110.315 40.0339V44.3489H112.375V39.8409C112.375 38.6389 112.096 37.7259 111.538 37.1039C110.98 36.4819 110.18 36.1699 109.139 36.1699ZM118.639 42.7391C119.293 42.7391 119.835 42.5191 120.265 42.0791C120.695 41.6391 120.91 41.0701 120.91 40.3721C120.91 39.6741 120.695 39.1001 120.265 38.6491C119.835 38.1991 119.293 37.9731 118.639 37.9731C117.973 37.9731 117.428 38.1961 117.004 38.6411C116.58 39.0871 116.369 39.6581 116.369 40.3561C116.369 41.0541 116.58 41.6251 117.004 42.0711C117.428 42.5161 117.973 42.7391 118.639 42.7391ZM121.086 36.7171C121.676 37.0821 122.143 37.5811 122.487 38.2141C122.83 38.8481 123.002 39.5671 123.002 40.3721C123.002 41.1771 122.83 41.8931 122.487 42.5211C122.143 43.1491 121.676 43.6431 121.086 44.0031C120.495 44.3621 119.825 44.5421 119.074 44.5421C118.472 44.5421 117.947 44.4301 117.495 44.2041C117.045 43.9791 116.68 43.6621 116.401 43.2541V47.8911H114.34V36.3631H116.175L116.401 37.5061C116.659 37.1521 116.999 36.8411 117.423 36.5721C117.847 36.3041 118.398 36.1701 119.074 36.1701C119.825 36.1701 120.495 36.3521 121.086 36.7171ZM129.435 42.3525C129.107 42.7385 128.649 42.9325 128.058 42.9325C127.671 42.9325 127.361 42.8465 127.124 42.6745C126.888 42.5025 126.77 42.2615 126.77 41.9505C126.77 41.6605 126.888 41.4155 127.124 41.2175C127.361 41.0195 127.752 40.9195 128.3 40.9195H130.055C129.969 41.4885 129.762 41.9665 129.435 42.3525ZM128.075 39.6315C126.915 39.6315 126.045 39.8625 125.466 40.3235C124.886 40.7855 124.596 41.3865 124.596 42.1265C124.596 42.5675 124.704 42.9695 124.918 43.3345C125.133 43.6995 125.46 43.9925 125.901 44.2125C126.34 44.4325 126.905 44.5425 127.591 44.5425C128.256 44.5425 128.801 44.4025 129.226 44.1235C129.65 43.8445 129.98 43.4905 130.216 43.0605L130.409 44.3495H132.164V39.4385C132.164 38.3975 131.836 37.5925 131.182 37.0225C130.527 36.4545 129.63 36.1695 128.493 36.1695C127.828 36.1695 127.226 36.2855 126.69 36.5165C126.153 36.7475 125.715 37.0775 125.377 37.5065C125.039 37.9355 124.843 38.4395 124.789 39.0195H126.802C126.877 38.6335 127.071 38.3405 127.382 38.1425C127.693 37.9435 128.058 37.8445 128.477 37.8445C128.938 37.8445 129.325 37.9735 129.636 38.2305C129.948 38.4885 130.103 38.8905 130.103 39.4385V39.6315H128.075ZM141.954 39.8411V44.3491H139.892V40.0341C139.892 39.3471 139.753 38.8211 139.475 38.4561C139.195 38.0911 138.76 37.9091 138.17 37.9091C137.591 37.9091 137.115 38.1131 136.745 38.5201C136.375 38.9291 136.189 39.4971 136.189 40.2271V44.3491H134.129V36.3631H135.948L136.109 37.7151C136.355 37.2431 136.713 36.8681 137.18 36.5881C137.646 36.3091 138.196 36.1701 138.83 36.1701C139.817 36.1701 140.585 36.4811 141.133 37.1031C141.68 37.7261 141.954 38.6391 141.954 39.8411ZM146.494 43.8179L144.642 47.8919H146.832L151.904 36.3629H149.714L147.38 41.9829L145.141 36.3629H142.903L146.011 43.8179H146.494ZM77.0178 52.3994H85.6648V54.0574H82.3628V63.6704H80.3028V54.0574H77.0178V52.3994ZM87.5164 58.8877C87.6234 58.3097 87.8704 57.8757 88.2564 57.5927C88.6434 57.3077 89.0884 57.1647 89.5934 57.1647C90.1194 57.1647 90.5594 57.3217 90.9134 57.6317C91.2674 57.9447 91.4604 58.3627 91.4934 58.8877H87.5164ZM91.6704 56.0067C91.0694 55.6627 90.3764 55.4917 89.5934 55.4917C88.7554 55.4917 88.0294 55.6707 87.4124 56.0307C86.7934 56.3897 86.3114 56.8917 85.9624 57.5357C85.6134 58.1807 85.4394 58.9147 85.4394 59.7417C85.4394 60.5577 85.6164 61.2767 85.9704 61.8997C86.3254 62.5227 86.8134 63.0047 87.4354 63.3487C88.0584 63.6927 88.7724 63.8647 89.5774 63.8647C90.2214 63.8647 90.7974 63.7447 91.3084 63.5087C91.8184 63.2727 92.2464 62.9487 92.5964 62.5357C92.9454 62.1217 93.1944 61.6627 93.3444 61.1587H91.2514C91.1124 61.4597 90.9004 61.7037 90.6164 61.8917C90.3304 62.0787 89.9794 62.1727 89.5614 62.1727C89.0024 62.1727 88.5284 61.9947 88.1364 61.6417C87.7444 61.2877 87.5274 60.7997 87.4844 60.1767H93.5544C93.5644 60.0357 93.5734 59.9037 93.5784 59.7747C93.5834 59.6457 93.5864 59.5227 93.5864 59.4037C93.5864 58.6727 93.4164 58.0107 93.0784 57.4147C92.7414 56.8197 92.2714 56.3507 91.6704 56.0067ZM98.2553 58.5186L100.268 55.6846H102.49L99.5763 59.6766L102.49 63.6706H100.268L98.2553 60.8366L96.2273 63.6706H94.0213L96.9193 59.6766L94.0213 55.6846H96.2273L98.2553 58.5186ZM106.66 53.542H104.841L104.599 55.685H103.23V57.407H104.599V60.886C104.599 61.927 104.851 62.651 105.355 63.058C105.86 63.466 106.531 63.671 107.368 63.671H108.769V61.915H107.771C107.363 61.915 107.076 61.843 106.91 61.698C106.743 61.554 106.66 61.288 106.66 60.901V57.407H108.817V55.685H106.66V53.542ZM114.468 52.3994H116.53V62.0594H121.521V63.6704H114.468V52.3994ZM128.171 61.4717C127.774 61.8757 127.307 62.0767 126.771 62.0767C126.234 62.0767 125.77 61.8757 125.378 61.4717C124.985 61.0697 124.79 60.4717 124.79 59.6767C124.79 58.8837 124.985 58.2837 125.378 57.8817C125.77 57.4797 126.239 57.2787 126.786 57.2787C127.313 57.2787 127.774 57.4797 128.171 57.8817C128.568 58.2837 128.767 58.8837 128.767 59.6767C128.767 60.4717 128.568 61.0697 128.171 61.4717ZM128.856 56.0227C128.238 55.6687 127.549 55.4917 126.786 55.4917C126.014 55.4917 125.318 55.6687 124.701 56.0227C124.084 56.3757 123.593 56.8677 123.228 57.4947C122.863 58.1237 122.681 58.8507 122.681 59.6767C122.681 60.5047 122.86 61.2317 123.22 61.8587C123.579 62.4877 124.067 62.9777 124.686 63.3327C125.303 63.6867 125.997 63.8647 126.771 63.8647C127.532 63.8647 128.225 63.6867 128.848 63.3327C129.47 62.9777 129.961 62.4877 130.32 61.8587C130.68 61.2317 130.86 60.5047 130.86 59.6767C130.86 58.8507 130.68 58.1237 130.32 57.4947C129.961 56.8677 129.473 56.3757 128.856 56.0227ZM135.577 59.7101C135.996 59.7101 136.342 59.5971 136.616 59.3721C136.889 59.1451 137.026 58.8231 137.026 58.4051C137.026 57.9871 136.889 57.6651 136.616 57.4381C136.342 57.2141 135.996 57.1011 135.577 57.1011C135.137 57.1011 134.783 57.2141 134.514 57.4381C134.246 57.6651 134.112 57.9871 134.112 58.4051C134.112 58.8231 134.246 59.1451 134.514 59.3721C134.783 59.5971 135.137 59.7101 135.577 59.7101ZM135.738 63.6061C135.298 63.5731 134.89 63.5261 134.514 63.4621C134.203 63.6341 133.98 63.8211 133.846 64.0241C133.712 64.2271 133.645 64.4381 133.645 64.6531C133.645 65.0501 133.83 65.3471 134.2 65.5461C134.571 65.7451 135.024 65.8451 135.561 65.8451C136.076 65.8451 136.495 65.7391 136.817 65.5301C137.138 65.3211 137.3 65.0381 137.3 64.6841C137.3 64.3951 137.195 64.1531 136.986 63.9601C136.776 63.7671 136.36 63.6491 135.738 63.6061ZM133.822 55.8781C134.305 55.6201 134.89 55.4911 135.577 55.4911C136.028 55.4911 136.446 55.5561 136.833 55.6841H139.86V56.9401L138.491 57.0361C138.706 57.4441 138.813 57.8951 138.813 58.3901C138.813 58.9271 138.684 59.4151 138.427 59.8541C138.17 60.2941 137.797 60.6431 137.307 60.9011C136.819 61.1591 136.242 61.2881 135.577 61.2881C135.19 61.2881 134.831 61.2451 134.498 61.1591L133.902 61.7551C134.085 61.8511 134.332 61.9311 134.643 61.9951C134.954 62.0601 135.459 62.1241 136.157 62.1881C137.22 62.2861 137.992 62.5381 138.475 62.9461C138.958 63.3541 139.2 63.9171 139.2 64.6361C139.2 65.1081 139.071 65.5581 138.813 65.9811C138.555 66.4051 138.158 66.7491 137.622 67.0111C137.085 67.2741 136.398 67.4051 135.561 67.4051C134.423 67.4051 133.506 67.1941 132.807 66.7701C132.11 66.3471 131.762 65.7101 131.762 64.8621C131.762 64.1431 132.11 63.5201 132.807 62.9951C132.593 62.8971 132.408 62.7961 132.252 62.6881C132.096 62.5811 131.96 62.4681 131.842 62.3511V61.9791L133.242 60.4991C132.62 59.9501 132.308 59.2491 132.308 58.3901C132.308 57.8521 132.44 57.3641 132.703 56.9251C132.966 56.4831 133.339 56.1361 133.822 55.8781ZM146.268 61.4717C145.871 61.8757 145.404 62.0767 144.868 62.0767C144.331 62.0767 143.867 61.8757 143.475 61.4717C143.082 61.0697 142.887 60.4717 142.887 59.6767C142.887 58.8837 143.082 58.2837 143.475 57.8817C143.867 57.4797 144.336 57.2787 144.883 57.2787C145.41 57.2787 145.871 57.4797 146.268 57.8817C146.665 58.2837 146.864 58.8837 146.864 59.6767C146.864 60.4717 146.665 61.0697 146.268 61.4717ZM146.953 56.0227C146.335 55.6687 145.646 55.4917 144.883 55.4917C144.111 55.4917 143.415 55.6687 142.798 56.0227C142.181 56.3757 141.69 56.8677 141.325 57.4947C140.96 58.1237 140.778 58.8507 140.778 59.6767C140.778 60.5047 140.957 61.2317 141.317 61.8587C141.676 62.4877 142.164 62.9777 142.783 63.3327C143.4 63.6867 144.094 63.8647 144.868 63.8647C145.629 63.8647 146.322 63.6867 146.945 63.3327C147.567 62.9777 148.058 62.4877 148.417 61.8587C148.777 61.2317 148.957 60.5047 148.957 59.6767C148.957 58.8507 148.777 58.1237 148.417 57.4947C148.058 56.8677 147.57 56.3757 146.953 56.0227Z" fill="#9A9AB0"/>
</svg>
