<?xml version="1.0" encoding="utf-8"?><!-- Uploaded to: SVG Repo, www.svgrepo.com, Generator: SVG Repo Mixer Tools -->
<svg width="800px" height="800px" viewBox="0 0 24 24" id="meteor-icon-kit__solid-universal-access" fill="none" xmlns="http://www.w3.org/2000/svg"><mask id="path-1-inside-1_525_174" fill="white"><path fill-rule="evenodd" clip-rule="evenodd" d="M12 24C18.6274 24 24 18.6274 24 12C24 5.37258 18.6274 0 12 0C5.37258 0 0 5.37258 0 12C0 18.6274 5.37258 24 12 24ZM12 8C12.9665 8 13.75 7.2165 13.75 6.25C13.75 5.2835 12.9665 4.5 12 4.5C11.0335 4.5 10.25 5.2835 10.25 6.25C10.25 7.2165 11.0335 8 12 8ZM5.56023 8.15825C5.74897 7.63922 6.32274 7.37146 6.84177 7.5602C8.53955 8.17758 13.0514 9.05361 17.1583 7.5602C17.6773 7.37146 18.2511 7.63922 18.4398 8.15825C18.6286 8.67729 18.3608 9.25105 17.8418 9.43979C16.5081 9.92476 15.1479 10.1919 13.8388 10.3095C13.6303 13.846 14.5029 16.9696 15.0445 18.0528C15.2915 18.5468 15.0912 19.1474 14.5973 19.3944C14.1033 19.6414 13.5026 19.4412 13.2556 18.9472C12.8117 18.0594 12.2792 16.3624 12 14.2665C11.7208 16.3624 11.1883 18.0594 10.7444 18.9472C10.4974 19.4412 9.89672 19.6414 9.40274 19.3944C8.90876 19.1474 8.70853 18.5468 8.95552 18.0528C9.49844 16.967 10.374 13.8305 10.1596 10.2832C8.43637 10.1115 7.01102 9.74988 6.15829 9.43979C5.63925 9.25105 5.3715 8.67729 5.56023 8.15825Z"/></mask><path fill-rule="evenodd" clip-rule="evenodd" d="M12 24C18.6274 24 24 18.6274 24 12C24 5.37258 18.6274 0 12 0C5.37258 0 0 5.37258 0 12C0 18.6274 5.37258 24 12 24ZM12 8C12.9665 8 13.75 7.2165 13.75 6.25C13.75 5.2835 12.9665 4.5 12 4.5C11.0335 4.5 10.25 5.2835 10.25 6.25C10.25 7.2165 11.0335 8 12 8ZM5.56023 8.15825C5.74897 7.63922 6.32274 7.37146 6.84177 7.5602C8.53955 8.17758 13.0514 9.05361 17.1583 7.5602C17.6773 7.37146 18.2511 7.63922 18.4398 8.15825C18.6286 8.67729 18.3608 9.25105 17.8418 9.43979C16.5081 9.92476 15.1479 10.1919 13.8388 10.3095C13.6303 13.846 14.5029 16.9696 15.0445 18.0528C15.2915 18.5468 15.0912 19.1474 14.5973 19.3944C14.1033 19.6414 13.5026 19.4412 13.2556 18.9472C12.8117 18.0594 12.2792 16.3624 12 14.2665C11.7208 16.3624 11.1883 18.0594 10.7444 18.9472C10.4974 19.4412 9.89672 19.6414 9.40274 19.3944C8.90876 19.1474 8.70853 18.5468 8.95552 18.0528C9.49844 16.967 10.374 13.8305 10.1596 10.2832C8.43637 10.1115 7.01102 9.74988 6.15829 9.43979C5.63925 9.25105 5.3715 8.67729 5.56023 8.15825Z" fill="#758CA3"/><path d="M6.84177 7.5602L7.52526 5.68062H7.52526L6.84177 7.5602ZM5.56023 8.15825L3.68065 7.47477L3.68065 7.47477L5.56023 8.15825ZM17.1583 7.5602L16.4748 5.68062L16.4748 5.68062L17.1583 7.5602ZM18.4398 8.15825L16.5602 8.84174L18.4398 8.15825ZM17.8418 9.43979L17.1583 7.5602L17.1583 7.5602L17.8418 9.43979ZM13.8388 10.3095L13.6599 8.31747L11.9437 8.47157L11.8423 10.1917L13.8388 10.3095ZM15.0445 18.0528L16.8333 17.1584L16.8333 17.1584L15.0445 18.0528ZM14.5973 19.3944L13.7028 17.6056L13.7028 17.6056L14.5973 19.3944ZM12 14.2665L13.9825 14.0024H10.0175L12 14.2665ZM9.40274 19.3944L10.2972 17.6056L10.2972 17.6056L9.40274 19.3944ZM8.95552 18.0528L7.16667 17.1584L7.16667 17.1584L8.95552 18.0528ZM10.1596 10.2832L12.156 10.1625L12.0532 8.46193L10.3579 8.29303L10.1596 10.2832ZM6.15829 9.43979L5.4748 11.3194V11.3194L6.15829 9.43979ZM22 12C22 17.5228 17.5228 22 12 22V26C19.732 26 26 19.732 26 12H22ZM12 2C17.5228 2 22 6.47715 22 12H26C26 4.26801 19.732 -2 12 -2V2ZM2 12C2 6.47715 6.47715 2 12 2V-2C4.26801 -2 -2 4.26801 -2 12H2ZM12 22C6.47715 22 2 17.5228 2 12H-2C-2 19.732 4.26801 26 12 26V22ZM11.75 6.25C11.75 6.11193 11.8619 6 12 6V10C14.0711 10 15.75 8.32107 15.75 6.25H11.75ZM12 6.5C11.8619 6.5 11.75 6.38807 11.75 6.25H15.75C15.75 4.17893 14.0711 2.5 12 2.5V6.5ZM12.25 6.25C12.25 6.38807 12.1381 6.5 12 6.5V2.5C9.92893 2.5 8.25 4.17893 8.25 6.25H12.25ZM12 6C12.1381 6 12.25 6.11193 12.25 6.25H8.25C8.25 8.32107 9.92893 10 12 10V6ZM7.52526 5.68062C5.96816 5.1144 4.24687 5.91767 3.68065 7.47477L7.43982 8.84174C7.25108 9.36077 6.67732 9.62853 6.15829 9.43979L7.52526 5.68062ZM16.4748 5.68062C12.954 6.96092 8.95155 6.19927 7.52526 5.68062L6.15829 9.43979C8.12754 10.1559 13.1489 11.1463 17.8418 9.43979L16.4748 5.68062ZM20.3194 7.47477C19.7532 5.91767 18.0319 5.1144 16.4748 5.68062L17.8418 9.43979C17.3227 9.62853 16.749 9.36078 16.5602 8.84174L20.3194 7.47477ZM18.5253 11.3194C20.0824 10.7532 20.8856 9.03187 20.3194 7.47477L16.5602 8.84174C16.3715 8.32271 16.6393 7.74894 17.1583 7.5602L18.5253 11.3194ZM14.0176 12.3014C15.4705 12.171 17.004 11.8726 18.5253 11.3194L17.1583 7.5602C16.0122 7.97696 14.8253 8.21284 13.6599 8.31747L14.0176 12.3014ZM16.8333 17.1584C16.4646 16.4209 15.6452 13.6518 15.8353 10.4272L11.8423 10.1917C11.6154 14.0401 12.5412 17.5184 13.2556 18.9472L16.8333 17.1584ZM15.4917 21.1833C16.9736 20.4423 17.5743 18.6403 16.8333 17.1584L13.2556 18.9472C13.0086 18.4532 13.2089 17.8526 13.7028 17.6056L15.4917 21.1833ZM11.4668 19.8416C12.2077 21.3236 14.0098 21.9242 15.4917 21.1833L13.7028 17.6056C14.1968 17.3586 14.7975 17.5588 15.0445 18.0528L11.4668 19.8416ZM10.0175 14.5306C10.3165 16.7748 10.8962 18.7006 11.4668 19.8416L15.0445 18.0528C14.7272 17.4183 14.242 15.95 13.9825 14.0024L10.0175 14.5306ZM12.5332 19.8416C13.1038 18.7006 13.6835 16.7748 13.9825 14.5306L10.0175 14.0024C9.75803 15.95 9.27279 17.4183 8.95552 18.0528L12.5332 19.8416ZM8.50831 21.1833C9.99024 21.9242 11.7923 21.3236 12.5332 19.8416L8.95552 18.0528C9.20251 17.5588 9.80319 17.3586 10.2972 17.6056L8.50831 21.1833ZM7.16667 17.1584C6.4257 18.6403 7.02637 20.4423 8.50831 21.1833L10.2972 17.6056C10.7911 17.8526 10.9914 18.4532 10.7444 18.9472L7.16667 17.1584ZM8.16328 10.4038C8.35874 13.6377 7.53654 16.4186 7.16667 17.1584L10.7444 18.9472C11.4603 17.5153 12.3893 14.0233 12.156 10.1625L8.16328 10.4038ZM5.4748 11.3194C6.4977 11.6913 8.0875 12.0866 9.96136 12.2733L10.3579 8.29303C8.78523 8.13634 7.52434 7.80841 6.84177 7.5602L5.4748 11.3194ZM3.68065 7.47477C3.11443 9.03187 3.9177 10.7532 5.4748 11.3194L6.84177 7.5602C7.3608 7.74894 7.62856 8.32271 7.43982 8.84174L3.68065 7.47477Z" fill="#758CA3" mask="url(#path-1-inside-1_525_174)"/></svg>